<?xml version="1.0" standalone="no"?>
<!DOCTYPE svg PUBLIC "-//W3C//DTD SVG 20010904//EN" "http://www.w3.org/TR/2001/REC-SVG-20010904/DTD/svg10.dtd">
<!-- Created using Krita: https://krita.org -->
<svg xmlns="http://www.w3.org/2000/svg" 
    xmlns:xlink="http://www.w3.org/1999/xlink"
    xmlns:krita="http://krita.org/namespaces/svg/krita"
    xmlns:sodipodi="http://sodipodi.sourceforge.net/DTD/sodipodi-0.dtd"
    width="72pt"
    height="72pt"
    viewBox="0 0 72 72">
<defs/>
<path id="shape0" transform="matrix(-1.87402553667972 0.14923979340878 -0.149011471451074 -1.87689700137409 9.57000040728268 12.7800005438947)" fill="none" stroke="#070707" stroke-width="0.72" stroke-linecap="square" stroke-linejoin="bevel" d="M0.480939 3.01123L4.4035 1.55405L0 0"/><path id="shape1" transform="matrix(1.87994045936347 0 0 1.88282098716361 8.44085799413826 1.55922199172856)" sodipodi:type="arc" sodipodi:rx="5.16" sodipodi:ry="3.84" sodipodi:cx="5.16067189851587" sodipodi:cy="3.84041856779462" sodipodi:start="1.73853982681881" sodipodi:end="0.113947422306975" sodipodi:open="true" d="M10.2872 4.27703C10.6071 2.19668 8.62849 0.30911 5.8392 0.0337632C3.04991 -0.241584 0.478421 1.19681 0.0584679 3.26729C-0.361485 5.33777 1.52494 7.27692 4.29917 7.62652" fill="none" stroke="#070707" stroke-width="0.72" stroke-linecap="square" stroke-linejoin="bevel"/><path id="shape2" transform="matrix(1.87994045936347 0 0 1.88282098716361 16.5263646045773 32.8804648682939)" fill="none" stroke="#070707" stroke-width="0.72" stroke-linecap="square" stroke-linejoin="bevel" d="M0.000806101 0.0475326C-0.0503149 4.61074 2.33321 8.85211 6.24764 11.1634C10.1621 13.4748 15.008 13.5022 18.9481 11.2353C21.8929 9.54103 23.9103 7.2047 24.7841 4.00198M25.319 0.190831M22.2154 0.0794215L10.7529 0"/><path id="shape3" transform="matrix(1.87994045936347 0 0 1.88282098716361 16.4287015442517 16.1100005539848)" fill="none" stroke="#070707" stroke-width="0.72" stroke-linecap="square" stroke-linejoin="miter" stroke-miterlimit="2" d="M0 8.92591L0.101758 0"/><path id="shape4" transform="matrix(1.87994045936347 0 0 1.88282098716361 27.6646340661515 10.7328055573396)" fill="none" stroke="#070707" stroke-width="0.72" stroke-linecap="square" stroke-linejoin="bevel" d="M0.0193456 0C0.0193456 4.36954 -0.591672 11.7818 5.05412 11.7818"/><path id="shape5" transform="matrix(1.87994045936347 0 0 1.88282098716361 30.9687762156476 55.3451402078238)" fill="none" stroke="#070707" stroke-width="0.72" stroke-linecap="square" stroke-linejoin="miter" stroke-miterlimit="2" d="M0 0L0.0721303 2.76696"/><path id="shape6" transform="matrix(1.87994045936347 0 0 1.88282098716361 39.1868835213594 57.5303211909027)" fill="none" stroke="#070707" stroke-width="0.72" stroke-linecap="square" stroke-linejoin="miter" stroke-miterlimit="2" d="M0.06 0L0 3.78"/><path id="shape7" transform="matrix(1.87744011581312 0.0970749938048348 -0.0969264787732629 1.88031681247644 21.7070216517378 60.8005391183191)" fill="none" stroke="#070707" stroke-width="0.72" stroke-linecap="square" stroke-linejoin="bevel" d="M6 0L0 0.18L1.92 1.44L1.32 2.88L6 0"/><path id="shape01" transform="matrix(1.87682870783517 -0.108286481106781 0.108120813620954 1.87970446767219 29.6994043913289 65.8942181934758)" fill="none" stroke="#070707" stroke-width="0.72" stroke-linecap="square" stroke-linejoin="bevel" d="M6 0L0 0.18L1.92 1.44L1.32 2.88L6 0"/><path id="shape8" transform="matrix(1.87994045936347 0 0 1.88282098716361 58.498587770419 26.61503412101)" fill="none" stroke="#070707" stroke-width="0.72" stroke-linecap="square" stroke-linejoin="bevel" d="M0.0326678 3.3593C-0.254061 3.24008 1.42838 1.09641 1.8896 0.928193C3.76209 -0.944297 8.83616 0.0791413 5.19886 3.43135C6.74125 4.36429 5.53886 7.57195 2.63779 6.87966"/><ellipse id="shape9" transform="matrix(1.87994045936347 0 0 1.88282098716361 15.3497873019222 5.05609481677364)" rx="0.720000000000002" ry="0.719999999999999" cx="0.720000000000002" cy="0.719999999999999" fill="none" stroke="#070707" stroke-width="0.72" stroke-linecap="square" stroke-linejoin="bevel"/>
</svg>
